<?xml version="1.0" encoding="UTF-8"?><svg id="Layer_1" xmlns="http://www.w3.org/2000/svg" viewBox="0 0 49.63 31.17"><defs><style>.cls-1{fill:#fff;stroke-width:0px;}</style></defs><path class="cls-1" d="M9.78,0l-1.1,9.49h-3.08c-.28-1.46-.53-3.12-.75-4.97-.1.8-.33,2.46-.69,4.97H1.1L0,0h2.4l.26,3.31.25,3.2c.09-1.66.32-3.83.68-6.51h2.56c.03.28.12,1.32.27,3.13l.27,3.61c.14-2.3.37-4.54.69-6.74h2.4Z"/><path class="cls-1" d="M10.27,0h4.11v1.9h-1.65v1.8h1.54v1.8h-1.54v2.09h1.81v1.9h-4.28V0Z"/><path class="cls-1" d="M15.47,20.2h-2.47v-4.28c-.34,0-.55.06-.63.18s-.12.44-.12.94v3.15h-2.29v-2.5c0-.77.02-1.23.06-1.4s.15-.36.31-.56.5-.37.98-.49c-.54-.05-.9-.2-1.08-.46s-.28-.75-.28-1.49c0-.81.13-1.4.39-1.77s.6-.6,1.01-.69,1.2-.13,2.36-.13h1.75v9.49ZM12.41,12.48c-.11.09-.16.29-.16.59v.52c0,.42.06.67.17.74s.31.11.58.11v-2.11c-.29,0-.48.05-.59.14Z"/><path class="cls-1" d="M10.61,21.49h4.18v1.9h-1.71v1.8h1.52v1.8h-1.52v3.98h-2.47v-9.49Z"/><path class="cls-1" d="M19.41,21.49l1.41,9.49h-2.52l-.13-1.71h-.88l-.15,1.71h-2.55l1.26-9.49h3.57ZM18.1,27.59c-.12-1.07-.25-2.4-.38-3.98-.25,1.82-.41,3.14-.47,3.98h.85Z"/><path class="cls-1" d="M26.47,24.36h-2.29v-.7c0-.33-.03-.54-.09-.63s-.16-.13-.29-.13c-.15,0-.26.06-.34.18-.08.12-.11.31-.11.55,0,.32.04.56.13.72.08.16.31.35.7.58,1.1.65,1.79,1.19,2.07,1.6s.43,1.09.43,2.02c0,.68-.08,1.17-.24,1.49s-.46.59-.92.81-.98.33-1.58.33c-.66,0-1.22-.12-1.69-.38s-.77-.57-.92-.96-.22-.94-.22-1.65v-.62h2.29v1.15c0,.36.03.58.1.69s.18.15.34.15.29-.06.37-.19.12-.32.12-.57c0-.56-.08-.92-.23-1.1-.16-.17-.54-.46-1.15-.86-.61-.41-1.02-.7-1.22-.88s-.36-.44-.5-.76-.2-.74-.2-1.24c0-.73.09-1.26.28-1.59s.49-.6.9-.79.91-.28,1.5-.28c.64,0,1.19.1,1.64.31s.75.47.9.78.22.85.22,1.6v.38Z"/><path class="cls-1" d="M33.12,21.49v9.49h-2.47v-3.98h-.74v3.98h-2.47v-9.49h2.47v3.39h.74v-3.39h2.47Z"/><path class="cls-1" d="M36.57,21.49v9.49h-2.47v-9.49h2.47Z"/><path class="cls-1" d="M43.2,27.04c0,.95-.02,1.63-.07,2.02s-.19.76-.42,1.09-.56.58-.96.76-.87.26-1.41.26-.96-.08-1.37-.25-.73-.42-.98-.75-.39-.69-.44-1.08-.07-1.07-.07-2.05v-1.62c0-.95.02-1.63.07-2.02s.19-.76.42-1.09.56-.58.96-.76.87-.26,1.41-.26.96.08,1.37.25.73.42.98.75.39.69.44,1.08.07,1.07.07,2.05v1.62ZM40.73,23.93c0-.44-.02-.72-.07-.85s-.15-.18-.3-.18c-.13,0-.23.05-.3.15s-.1.39-.1.88v4.43c0,.55.02.89.07,1.02s.15.19.31.19.28-.07.32-.22.07-.5.07-1.06v-4.36Z"/><path class="cls-1" d="M49.63,21.49v9.49h-2.16l-1.28-4.31v4.31h-2.06v-9.49h2.06l1.38,4.27v-4.27h2.06Z"/></svg>